{
	"asset":{
		"generator":"Khronos glTF Blender I/O v4.2.57",
		"version":"2.0"
	},
	"extensionsUsed":[
		"KHR_materials_specular"
	],
	"scene":0,
	"scenes":[
		{
			"name":"Scene",
			"nodes":[
				0,
				1,
				2
			]
		}
	],
	"nodes":[
		{
			"mesh":0,
			"name":"VinylRecord"
		},
		{
			"mesh":1,
			"name":"Shrinkwrap"
		},
		{
			"name":"Area",
			"rotation":[
				-0.16972699761390686,
				0,
				0,
				0.985491156578064
			],
			"translation":[
				0,
				0.38708990812301636,
				0.9408479332923889
			]
		}
	],
	"materials":[
		{
			"doubleSided":true,
			"extensions":{
				"KHR_materials_specular":{
					"specularFactor":0.20000000298023224
				}
			},
			"name":"Material.001",
			"pbrMetallicRoughness":{
				"baseColorTexture":{
					"index":0
				},
				"metallicFactor":0,
				"roughnessFactor":0.15000000596046448
			}
		},
		{
			"alphaMode":"BLEND",
			"doubleSided":true,
			"name":"shrinkwrap",
			"pbrMetallicRoughness":{
				"baseColorFactor":[
					1,
					1,
					1,
					0.07500000298023224
				],
				"baseColorTexture":{
					"index":1
				},
				"metallicFactor":0
			}
		}
	],
	"meshes":[
		{
			"name":"Cube.001",
			"primitives":[
				{
					"attributes":{
						"POSITION":0,
						"NORMAL":1,
						"TEXCOORD_0":2
					},
					"indices":3,
					"material":0
				}
			]
		},
		{
			"name":"Cube.002",
			"primitives":[
				{
					"attributes":{
						"POSITION":4,
						"NORMAL":5,
						"TEXCOORD_0":6
					},
					"indices":7,
					"material":1
				}
			]
		}
	],
	"textures":[
		{
			"sampler":0,
			"source":0
		},
		{
			"sampler":0,
			"source":1
		}
	],
	"images":[
		{
			"mimeType":"image/jpeg",
			"name":"HipHop",
			"uri":"HipHop.jpg"
		},
		{
			"mimeType":"image/jpeg",
			"name":"nc_wrinkles_1",
			"uri":"nc_wrinkles_1.jpg"
		}
	],
	"accessors":[
		{
			"bufferView":0,
			"componentType":5126,
			"count":7017,
			"max":[
				0.15700000524520874,
				0.15700000524520874,
				0.0024999999441206455
			],
			"min":[
				-0.15700000524520874,
				-0.15700000524520874,
				-0.0024999999441206455
			],
			"type":"VEC3"
		},
		{
			"bufferView":1,
			"componentType":5126,
			"count":7017,
			"type":"VEC3"
		},
		{
			"bufferView":2,
			"componentType":5126,
			"count":7017,
			"type":"VEC2"
		},
		{
			"bufferView":3,
			"componentType":5123,
			"count":22644,
			"type":"SCALAR"
		},
		{
			"bufferView":4,
			"componentType":5126,
			"count":5060,
			"max":[
				0.15762799978256226,
				0.15762799978256226,
				0.0025099997874349356
			],
			"min":[
				-0.15762799978256226,
				-0.15762799978256226,
				-0.0025099997874349356
			],
			"type":"VEC3"
		},
		{
			"bufferView":5,
			"componentType":5126,
			"count":5060,
			"type":"VEC3"
		},
		{
			"bufferView":6,
			"componentType":5126,
			"count":5060,
			"type":"VEC2"
		},
		{
			"bufferView":7,
			"componentType":5123,
			"count":18996,
			"type":"SCALAR"
		}
	],
	"bufferViews":[
		{
			"buffer":0,
			"byteLength":84204,
			"byteOffset":0,
			"target":34962
		},
		{
			"buffer":0,
			"byteLength":84204,
			"byteOffset":84204,
			"target":34962
		},
		{
			"buffer":0,
			"byteLength":56136,
			"byteOffset":168408,
			"target":34962
		},
		{
			"buffer":0,
			"byteLength":45288,
			"byteOffset":224544,
			"target":34963
		},
		{
			"buffer":0,
			"byteLength":60720,
			"byteOffset":269832,
			"target":34962
		},
		{
			"buffer":0,
			"byteLength":60720,
			"byteOffset":330552,
			"target":34962
		},
		{
			"buffer":0,
			"byteLength":40480,
			"byteOffset":391272,
			"target":34962
		},
		{
			"buffer":0,
			"byteLength":37992,
			"byteOffset":431752,
			"target":34963
		}
	],
	"samplers":[
		{
			"magFilter":9729,
			"minFilter":9987
		}
	],
	"buffers":[
		{
			"byteLength":469744,
			"uri":"album-Hiphop.bin"
		}
	]
}
