<?xml version="1.0" encoding="utf-8"?>
<!-- Generator: Adobe Illustrator 24.2.3, SVG Export Plug-In . SVG Version: 6.00 Build 0)  -->
<svg version="1.1" id="Capa_1" xmlns="http://www.w3.org/2000/svg" xmlns:xlink="http://www.w3.org/1999/xlink" x="0px" y="0px"
	 viewBox="0 0 800 800" style="enable-background:new 0 0 800 800;" xml:space="preserve">
<style type="text/css">
	.st0{font-family:'Magilio-Regular';}
	.st1{font-size:336.3879px;}
	.st2{fill:none;stroke:#000000;stroke-width:8.1105;stroke-miterlimit:10;}
	.st3{fill:none;}
</style>
<image style="display:none;overflow:visible;" width="1024" height="768" xlink:href="../Downloads/Títulos (intro) Texto general (Raleway) Texto general (Raleway BOLD).png"  transform="matrix(0.9258 0 0 0.9258 -111 45)">
</image>
<g>
	<g>
		<path d="M385.5,335.2c-5.4,46.1-45.5,69.7-86.5,69.7c-34.4,0-70.6-16.2-77.9-44.2c-7.3-26.4,7.6-44.9,29.3-44.9
			c18.3,0,27.7,10.6,30.4,21.1c0.8,3-1.3,5.9-4.4,6.2c-11.5,1-19.8,10.1-17.1,28.1c2.5,15,19.4,22.9,34.7,22
			c26.4-1.6,37.9-21.3,37.2-60.1c-0.3-20.6-9.2-72.3-81.8-54.2c-0.4,0.1-0.8,0.1-1.2,0.1h-4c-2.9,0-5.1-2.4-4.9-5.3l5.7-89.7
			c0.2-2.6,2.3-4.6,4.9-4.6h85.4c13.7-0.3,23.9-2.4,28.7-10.8c0.9-1.5,2.5-2.5,4.3-2.5c2.9,0,5.2,2.5,4.9,5.5
			c-1.4,12.8-2.7,25.6-4.1,38.4c-1.3,12.4-12.4,21.5-24.8,20.3c-28.1-2.6-56.2-5.1-84.2-7.7c-2.8-0.3-5.2,1.8-5.4,4.6l-2.3,29.7
			c-0.3,3.5,3,6.1,6.3,5.1C343.3,236.9,392.6,277,385.5,335.2z"/>
	</g>
	<text transform="matrix(1 0 0 1 398.4389 591.7833)" class="st0 st1">8</text>
	<g>
		<path d="M223.9,494c-3.9,0-7.5-0.6-11-1.9c-3.5-1.3-6.4-3.2-8.9-5.7l3.5-6.4c2.7,2.3,5.4,4,8,5c2.7,1.1,5.3,1.6,7.9,1.6
			c2.7,0,5-0.5,6.6-1.5c1.7-1,2.5-2.5,2.5-4.4c0-1.4-0.5-2.5-1.4-3.2c-0.9-0.7-2.2-1.3-3.9-1.8c-1.7-0.5-3.6-1.1-5.9-1.7
			c-3.2-1-6-2-8.2-3.1c-2.3-1.1-3.9-2.4-5-4c-1.1-1.6-1.7-3.6-1.7-6c0-2.9,0.8-5.4,2.3-7.5c1.5-2.1,3.6-3.7,6.4-4.8
			c2.7-1.1,5.9-1.7,9.4-1.7c3.3,0,6.4,0.5,9.3,1.5c2.8,1,5.3,2.6,7.5,4.8l-4.1,6.3c-2-1.8-4.1-3.2-6.2-4c-2.2-0.9-4.5-1.3-6.9-1.3
			c-1.3,0-2.7,0.2-4,0.5c-1.3,0.3-2.4,0.9-3.3,1.7c-0.9,0.8-1.3,2-1.3,3.5c0,1.3,0.4,2.3,1.1,3c0.7,0.7,1.8,1.3,3.2,1.9
			c1.4,0.5,3.1,1.1,5.2,1.7c3.6,1,6.6,2,9.1,3c2.5,1,4.5,2.4,5.8,3.9c1.4,1.6,2.1,3.8,2.1,6.6c0,4.3-1.7,7.8-5,10.2
			C233.8,492.8,229.4,494,223.9,494z"/>
		<path d="M349.2,491c-0.8,0.4-1.8,0.8-3.1,1.3c-1.3,0.5-2.7,0.9-4.2,1.3c-1.5,0.4-3.1,0.5-4.7,0.5c-2,0-3.8-0.4-5.5-1.1
			c-1.7-0.7-3.1-1.8-4.1-3.4c-1-1.5-1.5-3.5-1.5-5.9v-28.6h-6.1v-7.5h6.1v-15.1h9.6v15.1h10v7.5h-10v25.5c0.1,1.6,0.6,2.7,1.5,3.5
			c0.9,0.8,2,1.1,3.4,1.1c1.3,0,2.6-0.2,3.9-0.7c1.3-0.5,2.1-0.9,2.6-1.1L349.2,491z"/>
		<path d="M299.1,492.9c-3.5,1-6.8,1.2-9.9,0.8c-3.1-0.4-5.9-1.4-8.6-3c-2.6-1.5-4.8-3.5-6.7-5.9c-1.9-2.4-3.2-5.1-4-8.1
			c-1.2-4.2-1.3-8.3-0.3-12.3c1-4,2.9-7.5,5.8-10.5c2.9-3,6.6-5.2,11.1-6.4c4.7-1.3,9-1.4,12.9-0.2c3.9,1.2,7.3,3.2,10.1,6.1
			c2.8,2.9,4.7,6.3,5.8,10.2c0.2,0.7,0.3,1.3,0.4,1.9c0.1,0.6,0.2,1.1,0.2,1.4l-35.5,9.8c1,2.5,2.4,4.6,4.2,6.2
			c1.8,1.6,3.8,2.6,6.1,3.2c2.3,0.5,4.5,0.5,6.7-0.1c2.5-0.7,4.7-2,6.6-3.8c1.9-1.9,2.9-3.9,3.2-6.2l8.6,0.1c-0.4,2.4-1.3,4.7-2.8,7
			c-1.5,2.3-3.4,4.3-5.8,6C304.9,490.8,302.2,492.1,299.1,492.9z M278.7,470.7l26.7-7.4c-0.9-2.5-2.3-4.5-4-6
			c-1.7-1.5-3.7-2.6-6-3.1c-2.3-0.5-4.6-0.5-6.9,0.2c-2.4,0.7-4.4,1.8-6,3.4c-1.6,1.6-2.8,3.5-3.5,5.8
			C278.2,465.7,278.1,468.2,278.7,470.7z"/>
		<path d="M382.1,492.9c-3.5,1-6.8,1.2-9.9,0.8c-3.1-0.4-5.9-1.4-8.6-3c-2.6-1.5-4.8-3.5-6.7-5.9c-1.9-2.4-3.2-5.1-4-8.1
			c-1.2-4.2-1.3-8.3-0.3-12.3c1-4,2.9-7.5,5.8-10.5c2.9-3,6.6-5.2,11.1-6.4c4.7-1.3,9-1.4,12.9-0.2c3.9,1.2,7.3,3.2,10.1,6.1
			c2.8,2.9,4.7,6.3,5.8,10.2c0.2,0.7,0.3,1.3,0.4,1.9c0.1,0.6,0.2,1.1,0.2,1.4l-35.5,9.8c1,2.5,2.4,4.6,4.2,6.2
			c1.8,1.6,3.8,2.6,6.1,3.2c2.3,0.5,4.5,0.5,6.7-0.1c2.5-0.7,4.7-2,6.6-3.8c1.9-1.9,2.9-3.9,3.2-6.2l8.6,0.1c-0.4,2.4-1.3,4.7-2.8,7
			c-1.5,2.3-3.4,4.3-5.8,6C387.9,490.8,385.2,492.1,382.1,492.9z M361.6,470.7l26.7-7.4c-0.9-2.5-2.3-4.5-4-6
			c-1.7-1.5-3.7-2.6-6-3.1c-2.3-0.5-4.6-0.5-6.9,0.2c-2.4,0.7-4.4,1.8-6,3.4c-1.6,1.6-2.8,3.5-3.5,5.8
			C361.2,465.7,361.1,468.2,361.6,470.7z"/>
		<g>
			<path d="M250.6,493.2v-45.9h9.6v45.9H250.6z"/>
			<circle cx="255.4" cy="438.5" r="6"/>
		</g>
	</g>
	<g>
		<path d="M426,330.9c-3.9,0-7.5-0.6-11-1.9c-3.5-1.3-6.4-3.2-8.9-5.7l3.5-6.4c2.7,2.3,5.4,4,8,5c2.7,1.1,5.3,1.6,7.9,1.6
			c2.7,0,5-0.5,6.6-1.5c1.7-1,2.5-2.5,2.5-4.4c0-1.4-0.5-2.5-1.4-3.2c-0.9-0.7-2.2-1.3-3.9-1.8c-1.7-0.5-3.6-1.1-5.9-1.7
			c-3.2-1-6-2-8.2-3.1c-2.3-1.1-3.9-2.4-5-4c-1.1-1.6-1.7-3.6-1.7-6c0-2.9,0.8-5.4,2.3-7.5c1.5-2.1,3.6-3.7,6.4-4.8
			c2.7-1.1,5.9-1.7,9.4-1.7c3.3,0,6.4,0.5,9.3,1.5c2.8,1,5.3,2.6,7.5,4.8l-4.1,6.3c-2-1.8-4.1-3.2-6.2-4c-2.2-0.9-4.5-1.3-6.9-1.3
			c-1.3,0-2.7,0.2-4,0.5c-1.3,0.3-2.4,0.9-3.3,1.7c-0.9,0.8-1.3,2-1.3,3.5c0,1.3,0.4,2.3,1.1,3c0.7,0.7,1.8,1.3,3.2,1.9
			s3.1,1.1,5.2,1.7c3.6,1,6.6,2,9.1,3c2.5,1,4.5,2.4,5.8,3.9c1.4,1.6,2.1,3.8,2.1,6.6c0,4.3-1.7,7.8-5,10.2
			C435.9,329.6,431.5,330.9,426,330.9z"/>
		<path d="M479.7,330c-3.5,1-6.8,1.2-9.9,0.8c-3.1-0.4-5.9-1.4-8.6-3c-2.6-1.5-4.8-3.5-6.7-5.9c-1.9-2.4-3.2-5.1-4-8.1
			c-1.2-4.2-1.3-8.3-0.3-12.3c1-4,2.9-7.5,5.8-10.5c2.9-3,6.6-5.2,11.1-6.4c4.7-1.3,9-1.4,12.9-0.2c3.9,1.2,7.3,3.2,10.1,6.1
			c2.8,2.9,4.7,6.3,5.8,10.2c0.2,0.7,0.3,1.3,0.4,1.9c0.1,0.6,0.2,1.1,0.2,1.4l-35.5,9.8c1,2.5,2.4,4.6,4.2,6.2
			c1.8,1.6,3.8,2.6,6.1,3.2c2.3,0.5,4.5,0.5,6.7-0.1c2.5-0.7,4.7-2,6.6-3.8c1.9-1.9,2.9-3.9,3.2-6.2l8.6,0.1c-0.4,2.4-1.3,4.7-2.8,7
			c-1.5,2.3-3.4,4.3-5.8,6C485.6,327.8,482.8,329.1,479.7,330z M459.3,307.8l26.7-7.4c-0.9-2.5-2.3-4.5-4-6c-1.7-1.5-3.7-2.6-6-3.1
			c-2.3-0.5-4.6-0.5-6.9,0.2c-2.4,0.7-4.4,1.8-6,3.4s-2.8,3.5-3.5,5.8C458.8,302.8,458.7,305.2,459.3,307.8z"/>
		<path d="M542.4,330.9c-3.9,0-7.5-0.6-11-1.9c-3.5-1.3-6.4-3.2-8.9-5.7l3.5-6.4c2.7,2.3,5.4,4,8,5c2.7,1.1,5.3,1.6,7.9,1.6
			c2.7,0,5-0.5,6.6-1.5c1.7-1,2.5-2.5,2.5-4.4c0-1.4-0.5-2.5-1.4-3.2c-0.9-0.7-2.2-1.3-3.9-1.8c-1.7-0.5-3.6-1.1-5.9-1.7
			c-3.2-1-6-2-8.2-3.1c-2.3-1.1-3.9-2.4-5-4c-1.1-1.6-1.7-3.6-1.7-6c0-2.9,0.8-5.4,2.3-7.5c1.5-2.1,3.6-3.7,6.4-4.8
			c2.7-1.1,5.9-1.7,9.4-1.7c3.3,0,6.4,0.5,9.3,1.5c2.8,1,5.3,2.6,7.5,4.8l-4.1,6.3c-2-1.8-4.1-3.2-6.2-4c-2.2-0.9-4.5-1.3-6.9-1.3
			c-1.3,0-2.7,0.2-4,0.5c-1.3,0.3-2.4,0.9-3.3,1.7c-0.9,0.8-1.3,2-1.3,3.5c0,1.3,0.4,2.3,1.1,3c0.7,0.7,1.8,1.3,3.2,1.9
			c1.4,0.5,3.1,1.1,5.2,1.7c3.6,1,6.6,2,9.1,3c2.5,1,4.5,2.4,5.8,3.9c1.4,1.6,2.1,3.8,2.1,6.6c0,4.3-1.7,7.8-5,10.2
			C552.3,329.6,547.9,330.9,542.4,330.9z"/>
		<g>
			<path d="M506.5,331.6v-44.9h9.5v44.9H506.5z"/>
			<circle cx="511.3" cy="278" r="5.8"/>
		</g>
	</g>
	<path class="st2" d="M395.2,732.9c-185.3,0-335.6-150.2-335.6-335.6S209.9,61.7,395.2,61.7S730.8,212,730.8,397.3"/>
	<path id="SVGID_x5F_1_x5F_" class="st3" d="M409,738.3c183,0,331.4-152.2,331.4-339.9"/>
	<text>	<textPath  xlink:href="#SVGID_x5F_1_x5F_" startOffset="0%">
<tspan  style="font-family:'Intro'; font-size:47.8733px;">estudio de danza</tspan>	</textPath>
</text>
</g>
</svg>
