<svg id="Capa_1" data-name="Capa 1" xmlns="http://www.w3.org/2000/svg" viewBox="0 0 161.66 160.63"><defs><style>.cls-1{fill:none;stroke:#000;stroke-miterlimit:10;stroke-width:1.91px;}</style></defs><path d="M77.42,65.24c-1.25,10.66-10.5,16.1-20,16.1-7.94,0-16.32-3.75-18-10.22C37.74,65,41.2,60.76,46.19,60.76s7.07,3.31,7.2,6.05a.24.24,0,0,1-.27.25c-3.11-.23-5.58,1.85-4.87,6.49.59,3.45,4.48,5.29,8,5.07,6.1-.37,8.75-4.92,8.6-13.89-.08-4.77-2.13-16.74-19-12.5H43.8a.25.25,0,0,1-.24-.25L45,29.46a.24.24,0,0,1,.24-.22H65.81c3.16-.07,5.52-.57,6.63-2.5a1.15,1.15,0,0,1,1-.59c1.18,0,1.91,1.77-.17,2.7A2.12,2.12,0,0,0,72.45,32c3.15,4.74-.36,9.36-4.54,9L47.54,39.11a.22.22,0,0,0-.26.21l-.69,9.12a.24.24,0,0,0,.31.24C67.19,42.13,79.1,51.51,77.42,65.24Z"/><path d="M94.79,95.79c-5-1.91-10.32-5.64-10.32-12.23,0-10.79,11-13.89,18-13.89s18,3.1,18,13.89c0,6.59-5.32,10.32-10.32,12.23,5.8,1.51,12.7,5.24,12.7,14.84,0,15.56-17.78,16.2-20.4,16.2s-20.4-.64-20.4-16.2C82.09,101,89,97.3,94.79,95.79Zm-1,14.84c0,12.39,6.9,13.58,8.73,13.58s8.73-1.19,8.73-13.58S104,97.46,102.49,97.46,93.76,98.25,93.76,110.63Zm8.73-15.79c2.3,0,6.35-4.45,6.35-11.28s-2.46-11.27-6.35-11.27-6.35,4.45-6.35,11.27S100.19,94.84,102.49,94.84Z"/><path d="M39.72,103a7.25,7.25,0,0,1-2.59-.46A5.65,5.65,0,0,1,35,101.17l.83-1.51a7.52,7.52,0,0,0,1.9,1.19,5,5,0,0,0,1.87.38,3,3,0,0,0,1.56-.36,1.12,1.12,0,0,0,.59-1,.92.92,0,0,0-.32-.76,3,3,0,0,0-.91-.43l-1.4-.41a14.12,14.12,0,0,1-1.93-.73A3,3,0,0,1,36,96.57a2.34,2.34,0,0,1-.4-1.42,2.9,2.9,0,0,1,.54-1.76,3.49,3.49,0,0,1,1.5-1.14,5.92,5.92,0,0,1,2.23-.4,6.43,6.43,0,0,1,2.18.36,4.87,4.87,0,0,1,1.77,1.13l-1,1.49a5,5,0,0,0-1.47-1,4.33,4.33,0,0,0-2.58-.2,1.64,1.64,0,0,0-.77.41,1.09,1.09,0,0,0-.31.83,1,1,0,0,0,.25.71,2.34,2.34,0,0,0,.76.44c.33.12.74.26,1.22.41a19.34,19.34,0,0,1,2.15.71,3.54,3.54,0,0,1,1.38.94A2.29,2.29,0,0,1,44,99.67a2.86,2.86,0,0,1-1.17,2.42A5.11,5.11,0,0,1,39.72,103Z"/><path d="M69.28,102.24a7.23,7.23,0,0,1-.72.3,6.9,6.9,0,0,1-1,.3,4.56,4.56,0,0,1-1.11.13,3.33,3.33,0,0,1-1.31-.26,2.19,2.19,0,0,1-1-.79,3.49,3.49,0,0,1-.22-1.38v-6.3H63v-2h1v-4h2v4h2v2H66v5.55a2.06,2.06,0,0,0,.5.82,1.18,1.18,0,0,0,.79.27,2.39,2.39,0,0,0,.92-.18l.62-.26Z"/><path d="M57.46,102.23a5.78,5.78,0,0,1-2.34.19,5.47,5.47,0,0,1-3.59-2.1,5.42,5.42,0,0,1-1-1.92,5.79,5.79,0,0,1-.07-2.89A5.3,5.3,0,0,1,51.87,93a5.56,5.56,0,0,1,2.62-1.51,5.44,5.44,0,0,1,3,0,5.36,5.36,0,0,1,2.39,1.43,5.54,5.54,0,0,1,1.37,2.41c.05.16.08.31.11.45s0,.25.05.34l-8.38,2.32a4,4,0,0,0,1,1.46,3.2,3.2,0,0,0,1.44.74,3.13,3.13,0,0,0,1.58,0,3.52,3.52,0,0,0,1.56-.91,2.31,2.31,0,0,0,.75-1.45l2,0a3.88,3.88,0,0,1-.66,1.65,5.2,5.2,0,0,1-1.36,1.41A5.88,5.88,0,0,1,57.46,102.23Zm-4.83-4.76,6.31-1.75A3.52,3.52,0,0,0,58,94.3a3.18,3.18,0,0,0-1.41-.73,3.22,3.22,0,0,0-1.63,0,3.27,3.27,0,0,0-2.32,3.87Z"/><path d="M77,102.23a5.72,5.72,0,0,1-2.33.19,5.46,5.46,0,0,1-3.6-2.1,5.24,5.24,0,0,1-1-1.92,5.57,5.57,0,0,1-.07-2.89A5.29,5.29,0,0,1,71.45,93a5.6,5.6,0,0,1,2.62-1.51,5.47,5.47,0,0,1,3.05,0A5.33,5.33,0,0,1,79.5,92.9a5.66,5.66,0,0,1,1.38,2.41c0,.16.08.31.1.45a3.11,3.11,0,0,1,0,.34l-8.38,2.32a3.85,3.85,0,0,0,1,1.46,3.17,3.17,0,0,0,1.43.74,3.13,3.13,0,0,0,1.58,0,3.61,3.61,0,0,0,1.57-.91A2.34,2.34,0,0,0,79,98.24l2,0a4.15,4.15,0,0,1-.66,1.65A5.51,5.51,0,0,1,79,101.32,6,6,0,0,1,77,102.23Zm-4.82-4.76,6.3-1.75a3.5,3.5,0,0,0-.94-1.42,3.29,3.29,0,0,0-3-.7,3.29,3.29,0,0,0-1.42.81,3.22,3.22,0,0,0-.9,3.06Z"/><path d="M46,103.24v-11h2v11Z"/><circle cx="47.46" cy="89.74" r="1.5"/><path d="M87.4,64.46A7.42,7.42,0,0,1,84.81,64a5.8,5.8,0,0,1-2.09-1.35l.83-1.51a7,7,0,0,0,1.89,1.19,4.86,4.86,0,0,0,1.88.38,3.11,3.11,0,0,0,1.56-.35,1.16,1.16,0,0,0,.59-1,.92.92,0,0,0-.32-.76,3.37,3.37,0,0,0-.91-.43l-1.4-.41A14.39,14.39,0,0,1,84.9,59a3.13,3.13,0,0,1-1.19-.94,2.4,2.4,0,0,1-.39-1.41,2.93,2.93,0,0,1,.54-1.77,3.4,3.4,0,0,1,1.5-1.13,5.67,5.67,0,0,1,2.22-.4,6.45,6.45,0,0,1,2.19.36,4.74,4.74,0,0,1,1.77,1.13l-1,1.49a5,5,0,0,0-1.47-1,4.51,4.51,0,0,0-1.64-.31,3.73,3.73,0,0,0-.94.12,1.63,1.63,0,0,0-.78.41,1.06,1.06,0,0,0-.31.82,1,1,0,0,0,.26.71,2,2,0,0,0,.76.44c.33.12.73.26,1.22.41a17.34,17.34,0,0,1,2.15.72,3.57,3.57,0,0,1,1.38.93,2.3,2.3,0,0,1,.48,1.55,2.86,2.86,0,0,1-1.17,2.41A5,5,0,0,1,87.4,64.46Z"/><path d="M100.08,64.23a5.72,5.72,0,0,1-2.33.19,5.46,5.46,0,0,1-3.6-2.1,5.4,5.4,0,0,1-1-1.92,5.57,5.57,0,0,1-.07-2.89A5.29,5.29,0,0,1,94.49,55a5.6,5.6,0,0,1,2.62-1.51,5.47,5.47,0,0,1,3-.05,5.33,5.33,0,0,1,2.38,1.43,5.56,5.56,0,0,1,1.38,2.41c0,.16.08.31.1.45a3.11,3.11,0,0,1,0,.34l-8.38,2.32a3.85,3.85,0,0,0,1,1.46,3.17,3.17,0,0,0,1.43.74,3.13,3.13,0,0,0,1.58,0,3.61,3.61,0,0,0,1.57-.91,2.34,2.34,0,0,0,.74-1.45l2,0a4.15,4.15,0,0,1-.66,1.65A5.35,5.35,0,0,1,102,63.32,5.93,5.93,0,0,1,100.08,64.23ZM95.26,59l6.3-1.75a3.54,3.54,0,0,0-.94-1.43,3.25,3.25,0,0,0-3-.69,3.17,3.17,0,0,0-1.42.8,3.38,3.38,0,0,0-.84,1.36A3.27,3.27,0,0,0,95.26,59Z"/><path d="M114.87,64.46a7.42,7.42,0,0,1-2.59-.45,5.8,5.8,0,0,1-2.09-1.35l.83-1.51a7,7,0,0,0,1.89,1.19,4.85,4.85,0,0,0,1.87.38,3.12,3.12,0,0,0,1.57-.35,1.16,1.16,0,0,0,.59-1,.92.92,0,0,0-.32-.76,3.37,3.37,0,0,0-.91-.43l-1.4-.41a14.39,14.39,0,0,1-1.94-.72,3.05,3.05,0,0,1-1.19-.94,2.4,2.4,0,0,1-.39-1.41,2.93,2.93,0,0,1,.54-1.77,3.4,3.4,0,0,1,1.5-1.13,5.67,5.67,0,0,1,2.22-.4,6.45,6.45,0,0,1,2.19.36A4.74,4.74,0,0,1,119,54.84l-1,1.49a4.77,4.77,0,0,0-1.47-1,4.42,4.42,0,0,0-1.63-.31,3.73,3.73,0,0,0-.94.12,1.63,1.63,0,0,0-.78.41,1.06,1.06,0,0,0-.31.82,1,1,0,0,0,.26.71,2,2,0,0,0,.76.44c.33.12.73.26,1.22.41a17.34,17.34,0,0,1,2.15.72,3.57,3.57,0,0,1,1.38.93,2.3,2.3,0,0,1,.48,1.55A2.86,2.86,0,0,1,118,63.58,5,5,0,0,1,114.87,64.46Z"/><path d="M107,65.24v-11h2v11Z"/><circle cx="107.46" cy="51.74" r="1.5"/><path class="cls-1" d="M80.15,159.33a79.19,79.19,0,1,1,79.18-79.18"/><path d="M89.33,154.3l-3,.14.06,1.12,2.75-.13c0,.6.06,1.19.08,1.79l-2.75.13c0,.46,0,.91.07,1.39l3.1-.15c0,.59,0,1.2.08,1.8l-5.16.24c-.12-2.64-.25-5.28-.37-7.9l5.06-.24C89.28,153.08,89.3,153.69,89.33,154.3Z"/><path d="M95.58,157.25c-.09-.55-.76-.54-1.57-.47-1.76.14-3-.27-3.27-2-.57-3.36,5.66-4.29,6.12-.91l-2,.29c-.15-1-2.29-.63-2.23.31,0,.6.66.64,1.39.61,1.62-.07,3.21-.1,3.5,1.85.49,3.29-6,4.35-6.5.9l2-.3C93.2,158.56,95.71,158.16,95.58,157.25Z"/><path d="M97.61,153.12c-.15-.59-.29-1.17-.44-1.75L103,149.9c.14.58.29,1.17.44,1.76l-1.93.48,1.49,5.92-2,.49-1.49-5.91Z"/><path d="M109.86,153.05l-1.8-4.93,1.88-.68,1.81,4.95c.6,1.64-.53,3.12-2.09,3.69s-3.37.16-4-1.47l-1.81-5,1.86-.68,1.8,4.92a1.09,1.09,0,0,0,1.49.48C109.6,154.16,110.08,153.65,109.86,153.05Z"/><path d="M117.74,152.46,115,153.84l-3.56-7.06,2.72-1.38C118.9,143,122.45,150.05,117.74,152.46Zm-1.71-1.2.88-.44c2.31-1.17.4-4.94-1.9-3.77l-.88.44Z"/><path d="M125,146.25l1,1.5-3.49,2.18c-.36-.58-.59-.93-.94-1.5l.87-.55-2.32-3.7-.81.51-.93-1.5c1.12-.7,2.23-1.39,3.34-2.1l.94,1.5-.8.5,2.32,3.7Z"/><path d="M124.65,144c-3.34-4.33,3.24-9.42,6.58-5.09S128,148.28,124.65,144Zm4.91-3.79a2,2,0,1,0-3.22,2.48A2,2,0,1,0,129.56,140.16Z"/><path d="M139.79,135.94l-2.08,2.24-5.79-5.39,2.09-2.24C137.62,126.7,143.38,132.06,139.79,135.94Zm-2-.53.68-.73c1.76-1.89-1.34-4.77-3.1-2.87l-.67.72Z"/><path d="M142,123.69l-1.81,2.39.9.68,1.66-2.21,1.43,1.09-1.66,2.2,1.11.83,1.87-2.47,1.43,1.08-3.11,4.12-6.31-4.76c1.13-1.5,1.9-2.53,3.05-4Z"/><path d="M151.48,119.85,150,122.53l-6.93-3.81,1.47-2.68C147.11,111.42,154,115.2,151.48,119.85Zm-2.09,0,.48-.86c1.24-2.26-2.46-4.3-3.71-2l-.47.86Z"/><path d="M155.14,109.73l-1.22,3,.74.81-.78,1.88-.27-.11L147.87,109l.34-.82,8.53-.45.27.11-.77,1.88Zm-4.15,0,1.58,1.63.7-1.69Z"/><path d="M154.36,103.12l3.73,1.06c-.19.7-.39,1.39-.58,2.07l-7.64-2.18.2-.72,4.89-2.88-3.73-1.06c.19-.68.39-1.36.58-2l7.62,2.17-.21.71Z"/><path d="M153.42,90.12l5.14,4.26.57-3.31,1.79.31-1.11,6.38-.3-.05-5.15-4.25-.51,3-1.78-.31,1.05-6Z"/><path d="M160.5,84.42l-.21,3.19,1,.54-.13,2-.3,0L153.36,86l.07-.89L161.37,82l.29,0-.13,2Zm-3.92,1.35,2,1,.12-1.83Z"/></svg>